<?xml version="1.0" standalone="no"?>
<!DOCTYPE svg PUBLIC "-//W3C//DTD SVG 20010904//EN"
 "http://www.w3.org/TR/2001/REC-SVG-20010904/DTD/svg10.dtd">
<svg version="1.0" xmlns="http://www.w3.org/2000/svg"
 width="3000.000000pt" height="3000.000000pt" viewBox="0 0 3000.000000 3000.000000"
 preserveAspectRatio="xMidYMid meet">

<g transform="translate(0.000000,3000.000000) scale(0.100000,-0.100000)"
fill="#000000" stroke="none">
<path d="M0 15000 l0 -15000 15000 0 15000 0 0 15000 0 15000 -7542 0 -7543 0
3 -312 c1 -172 0 -318 -3 -326 -4 -12 -8 -12 -21 -2 -13 11 -14 55 -12 327 l3
313 -7442 0 -7443 0 0 -15000z m12859 14250 c56 -143 99 -264 96 -270 -3 -5
-12 -10 -19 -10 -15 0 -220 515 -211 530 18 29 39 -10 134 -250z m3991 130 c0
-11 -50 -158 -111 -327 -61 -170 -116 -320 -121 -335 -10 -27 -31 -37 -42 -19
-5 7 44 147 239 689 7 20 35 14 35 -8z m-3410 -222 c5 -13 51 -164 101 -336
67 -231 88 -317 80 -325 -8 -8 -14 -8 -22 0 -14 14 -200 655 -194 671 7 19 25
14 35 -10z m1480 -969 c0 -938 -1 -990 -17 -987 -17 3 -18 59 -21 978 -1 536
0 981 3 988 2 6 11 12 20 12 13 0 15 -108 15 -991z m-736 609 c52 -314 54
-331 29 -326 -15 3 -25 51 -67 300 -27 163 -46 304 -42 314 17 45 36 -23 80
-288z m2056 269 c-1 -12 -33 -146 -73 -297 -57 -218 -76 -275 -90 -278 -9 -2
-17 2 -17 10 -1 22 143 572 153 585 13 17 27 6 27 -20z m-700 -4 c0 -64 -24
-204 -36 -214 -23 -19 -27 15 -14 119 14 118 15 122 35 122 10 0 15 -9 15 -27z
m-2493 -287 c25 -60 24 -86 0 -86 -14 0 -57 101 -57 134 0 38 34 9 57 -48z
m-427 -323 c85 -152 156 -282 158 -289 5 -19 -18 -28 -33 -13 -27 28 -315 553
-311 566 3 7 11 13 18 13 7 0 83 -125 168 -277z m4650 256 c0 -30 -91 -199
-106 -199 -29 0 -23 25 28 120 51 96 78 123 78 79z m-1781 -61 c0 -13 -13
-115 -28 -228 -22 -173 -29 -205 -44 -208 -23 -5 -22 14 8 246 14 105 25 196
25 202 0 5 9 10 20 10 14 0 20 -6 19 -22z m-2334 -155 c168 -419 285 -725 280
-733 -9 -14 -32 -12 -38 3 -3 8 -75 192 -161 410 -86 219 -156 406 -156 417 0
11 6 20 14 20 8 0 32 -46 61 -117z m3401 74 c6 -17 -54 -177 -67 -177 -20 0
-21 34 -4 84 34 97 57 128 71 93z m-5682 -331 c86 -90 156 -168 156 -174 0
-26 -24 -22 -57 9 -97 93 -293 310 -288 319 3 6 12 10 19 10 8 0 84 -74 170
-164z m2908 -246 c59 -201 106 -371 103 -377 -11 -30 -34 -11 -49 40 -8 28
-55 193 -105 365 -50 172 -91 320 -91 328 0 9 7 14 17 12 14 -3 41 -82 125
-368z m3284 336 c5 -14 -270 -535 -290 -548 -13 -8 -26 -1 -26 16 0 11 241
469 276 524 16 25 32 28 40 8z m1904 -11 c0 -19 -188 -215 -206 -215 -33 0 -7
42 86 138 91 96 120 114 120 77z m-4646 -360 c32 -192 60 -358 62 -368 6 -19
-24 -36 -35 -19 -13 22 -125 728 -118 747 18 46 37 -26 91 -360z m1716 354 c0
-21 -197 -787 -207 -801 -7 -13 -33 -9 -33 5 0 12 189 747 206 800 8 24 34 21
34 -4z m395 -70 c10 -15 -156 -469 -171 -469 -6 0 -14 6 -17 14 -5 12 129 402
154 448 11 20 25 23 34 7z m-4205 -459 c162 -227 250 -356 246 -366 -3 -9 -11
-14 -18 -12 -6 2 -124 160 -261 351 -229 320 -264 377 -228 377 5 0 123 -158
261 -350z m5480 295 c0 -22 -310 -445 -326 -445 -30 0 -10 40 89 175 56 77
126 173 155 213 49 68 82 91 82 57z m-2300 -43 c0 -57 -81 -657 -91 -666 -6
-6 -13 -6 -20 1 -7 7 2 105 31 339 23 181 43 335 46 342 7 25 34 13 34 -16z
m-2385 -302 c81 -143 148 -268 149 -277 0 -10 -6 -19 -14 -20 -10 -3 -60 75
-160 253 -80 142 -147 261 -148 266 -5 13 6 38 17 38 5 0 75 -117 156 -260z
m-1485 -186 c209 -218 379 -401 377 -407 -2 -7 -10 -12 -19 -12 -20 0 -762
771 -766 796 -2 12 2 19 11 19 8 0 187 -178 397 -396z m7045 373 c0 -8 -168
-189 -374 -402 -300 -310 -376 -383 -387 -374 -8 6 -10 17 -6 24 18 32 746
775 756 772 6 -2 11 -11 11 -20z m-2358 -274 c-10 -52 -99 -283 -108 -283 -23
0 -19 38 17 138 55 155 63 172 80 172 13 0 15 -7 11 -27z m461 -24 c4 -24
-342 -653 -361 -657 -11 -2 -17 3 -17 13 0 14 206 407 322 613 29 50 50 62 56
31z m-3169 -51 c35 -82 44 -116 37 -134 -6 -15 -9 -16 -20 -3 -15 16 -66 142
-66 164 0 31 31 13 49 -27z m3737 -112 c7 -19 -296 -440 -319 -444 -10 -2 -17
3 -17 12 0 13 175 264 288 414 27 35 40 40 48 18z m-3256 -211 c48 -165 61
-218 52 -227 -8 -8 -15 -9 -22 -2 -14 14 -131 424 -124 435 18 30 35 -6 94
-206z m414 178 c14 -70 56 -333 56 -353 0 -15 -5 -20 -17 -18 -15 3 -24 35
-50 188 -18 102 -30 191 -28 198 8 22 33 12 39 -15z m1362 -107 c3 -8 -29
-146 -71 -307 l-76 -294 53 -50 c237 -225 368 -471 414 -779 13 -83 14 -257
11 -1150 -3 -947 -5 -1058 -20 -1121 -45 -185 -121 -357 -218 -495 -108 -154
-305 -323 -474 -408 -310 -154 -682 -177 -1012 -61 -125 44 -233 102 -344 186
-215 162 -367 374 -454 637 -63 189 -65 221 -65 1135 l0 821 -180 187 c-99
103 -180 193 -180 200 0 37 50 -2 197 -154 l162 -168 0 140 c1 168 14 279 46
400 57 218 161 403 316 563 62 64 164 152 195 170 16 9 16 14 -1 76 -14 51
-15 70 -7 78 16 16 26 3 42 -55 7 -26 16 -49 20 -52 3 -2 45 16 93 41 94 49
253 104 362 125 45 9 133 14 245 13 160 -1 185 -4 287 -30 98 -26 114 -28 117
-14 2 8 10 61 16 118 12 100 22 124 42 104 9 -9 -1 -136 -18 -224 -5 -25 0
-29 88 -71 51 -24 125 -65 163 -90 39 -25 71 -43 72 -39 1 4 34 131 73 282 39
151 73 281 75 288 6 16 24 15 31 -2z m-2316 -363 c107 -192 195 -354 195 -362
0 -26 -23 -22 -42 6 -52 75 -384 683 -378 693 3 5 12 10 19 10 6 0 99 -156
206 -347z m-718 113 c143 -200 169 -246 134 -246 -18 0 -328 440 -322 457 3 8
12 13 18 11 7 -3 83 -103 170 -222z m-1692 46 c76 -64 141 -122 144 -129 2 -6
-1 -16 -8 -23 -11 -8 -47 18 -162 116 -82 70 -151 128 -153 130 -11 9 11 35
25 30 9 -3 78 -59 154 -124z m7728 45 c3 -16 -239 -232 -261 -232 -7 0 -12 8
-12 18 0 20 243 237 260 233 6 -1 11 -10 13 -19z m-1068 -144 c-1 -24 -315
-347 -329 -338 -6 3 -11 12 -11 20 0 18 308 335 326 335 8 0 14 -8 14 -17z
m-5521 -140 c130 -136 163 -183 127 -183 -18 0 -296 294 -296 314 0 36 35 9
169 -131z m-811 -42 c34 -29 62 -60 62 -67 0 -27 -33 -13 -101 44 -63 52 -80
78 -62 95 7 8 15 2 101 -72z m5442 11 c0 -9 -49 -84 -108 -167 -100 -139 -142
-181 -142 -141 0 13 105 168 207 304 25 33 43 35 43 4z m-6638 -39 c55 -36 88
-65 88 -75 0 -29 -20 -21 -110 39 -88 58 -102 71 -94 85 10 16 29 7 116 -49z
m8213 17 c0 -20 -575 -511 -595 -508 -8 2 -15 9 -15 16 0 18 577 511 595 509
8 -1 15 -9 15 -17z m1223 3 c-3 -19 -256 -195 -272 -190 -31 10 -1 43 114 121
124 85 165 103 158 69z m-3380 -35 c4 -23 -102 -212 -121 -216 -29 -6 -20 25
39 135 52 97 75 119 82 81z m-3158 -194 c64 -89 76 -116 50 -121 -17 -3 -140
165 -140 191 0 36 31 12 90 -70z m-1331 -79 c125 -108 179 -160 175 -170 -4
-8 -11 -15 -18 -15 -19 0 -361 302 -364 321 -7 40 33 14 207 -136z m-1276 95
c44 -28 58 -52 39 -64 -15 -9 -112 57 -112 76 0 25 18 22 73 -12z m2298 -339
c156 -161 286 -300 287 -308 13 -55 -37 -11 -311 271 -164 168 -297 312 -297
321 0 10 7 15 19 13 10 -2 146 -135 302 -297z m6449 282 c0 -12 -78 -71 -224
-170 -123 -84 -229 -153 -236 -153 -6 0 -10 9 -8 21 2 14 70 67 218 169 118
82 223 149 233 149 10 1 17 -6 17 -16z m-1963 -9 c5 -15 -555 -594 -574 -594
-9 0 -13 8 -11 19 4 26 550 592 567 589 8 -2 16 -8 18 -14z m-6264 -277 c180
-119 327 -221 327 -227 0 -6 -6 -13 -14 -16 -19 -7 -686 434 -686 453 0 11 7
14 23 11 12 -3 169 -102 350 -221z m-1383 -101 c274 -125 321 -152 291 -170
-9 -6 -596 255 -614 273 -11 11 -1 31 16 31 7 0 145 -60 307 -134z m2669 -106
c177 -152 215 -195 172 -195 -20 0 -400 328 -400 346 -1 21 9 30 24 21 6 -4
98 -81 204 -172z m5378 133 c5 -14 -7 -25 -185 -176 -79 -67 -149 -122 -155
-122 -6 0 -13 7 -15 16 -3 17 324 302 341 296 6 -2 12 -8 14 -14z m2558 -8 c0
-16 -27 -31 -133 -78 -73 -31 -138 -55 -143 -52 -5 4 -9 14 -9 24 0 13 27 29
103 60 56 23 113 48 127 56 33 19 55 15 55 -10z m-1588 -42 c5 -14 -114 -96
-127 -88 -22 13 -8 36 43 70 52 35 77 41 84 18z m1168 -138 c0 -25 -280 -144
-297 -127 -9 9 -9 15 0 25 16 15 274 126 287 123 6 -2 10 -11 10 -21z m-1415
-23 c0 -13 -80 -74 -265 -200 -145 -100 -269 -182 -275 -182 -6 0 -10 9 -8 21
2 14 85 76 263 199 143 98 266 179 273 180 6 0 12 -8 12 -18z m-7967 -181
c283 -129 353 -164 355 -180 2 -12 -2 -21 -8 -21 -18 0 -724 322 -732 333 -9
14 0 27 18 27 8 0 173 -72 367 -159z m1361 -50 c156 -105 287 -194 289 -198 3
-5 2 -15 -3 -23 -6 -10 -74 30 -287 170 -153 100 -286 190 -297 200 -18 17
-15 40 5 40 5 0 137 -85 293 -189z m7616 81 c0 -15 -61 -44 -302 -145 -167
-69 -310 -127 -318 -129 -9 -2 -15 5 -15 17 0 16 50 41 300 147 165 69 308
127 318 127 10 1 17 -6 17 -17z m-2830 -8 c0 -9 -84 -103 -187 -210 -170 -177
-223 -220 -223 -181 0 18 378 407 396 407 8 0 14 -7 14 -16z m607 -49 c7 -19
-63 -84 -89 -85 -30 0 -20 31 20 66 41 37 60 42 69 19z m-7513 -261 c72 -19
146 -40 164 -45 31 -10 42 -32 23 -44 -9 -5 -282 65 -328 85 -27 11 -31 40 -6
40 9 0 75 -16 147 -36z m1564 -80 c141 -64 264 -122 272 -130 11 -11 11 -17 2
-26 -9 -9 -73 16 -274 107 -145 65 -269 124 -277 131 -14 12 -8 34 10 34 5 0
125 -52 267 -116z m6490 84 c2 -11 -73 -68 -235 -178 -236 -162 -283 -188
-283 -157 0 17 488 358 505 353 6 -1 11 -10 13 -18z m2357 2 c0 -19 -50 -43
-95 -44 -51 -1 -45 24 10 46 52 20 85 19 85 -2z m-1470 -19 c0 -22 -375 -177
-386 -159 -13 21 8 34 181 107 163 69 205 80 205 52z m-6303 -92 c51 -34 78
-58 78 -70 0 -29 -17 -23 -102 32 -73 48 -88 66 -71 82 10 11 13 10 95 -44z
m7533 31 c0 -10 -36 -27 -110 -53 -112 -38 -139 -40 -133 -10 2 12 33 27 103
49 107 35 140 38 140 14z m-9732 -45 c44 -13 57 -21 57 -36 0 -10 -5 -19 -11
-19 -21 0 -134 32 -143 40 -14 14 2 42 21 36 10 -3 44 -12 76 -21z m9385 -66
c-3 -18 -36 -32 -233 -95 -126 -41 -236 -74 -243 -74 -8 0 -12 9 -10 22 3 19
32 31 223 94 245 80 268 85 263 53z m-8739 -110 c223 -60 414 -112 424 -115 9
-3 17 -15 17 -26 0 -26 18 -30 -460 100 -359 98 -395 110 -398 130 -2 12 0 22
3 22 4 0 190 -50 414 -111z m8121 -88 c0 -12 -13 -22 -39 -29 -55 -17 -71 -15
-71 8 0 15 12 23 48 33 52 16 62 14 62 -12z m-213 -57 c3 -8 2 -19 -3 -24 -16
-15 -577 -191 -591 -185 -8 2 -13 12 -11 21 2 12 83 42 293 110 160 51 294 93
298 94 4 0 10 -7 14 -16z m-6843 -148 c230 -63 423 -119 429 -125 8 -8 8 -14
-1 -23 -8 -8 -116 17 -447 107 -369 101 -435 122 -435 137 0 10 7 18 18 18 9
0 205 -51 436 -114z m6131 -91 c0 -16 -24 -27 -147 -66 -141 -45 -177 -48
-165 -16 6 16 268 107 297 103 8 0 15 -10 15 -21z m-7766 -134 c227 -33 415
-62 418 -65 11 -10 -7 -36 -24 -36 -39 1 -823 117 -829 123 -8 8 3 37 14 37 4
0 194 -27 421 -59z m9819 -3 c2 -11 -5 -19 -20 -23 -39 -9 -541 -75 -570 -75
-29 0 -40 26 -15 36 20 7 559 82 582 81 11 -1 21 -10 23 -19z m-8881 -133
c373 -55 353 -50 353 -76 0 -19 -4 -20 -47 -13 -27 4 -187 28 -358 53 -265 39
-310 49 -313 64 -5 25 14 23 365 -28z m8123 30 c0 -9 -6 -18 -12 -20 -25 -10
-723 -103 -731 -98 -4 3 -7 12 -5 21 3 14 57 25 333 64 372 52 415 55 415 33z
m-871 -104 c7 -5 11 -15 9 -22 -7 -21 -368 -71 -386 -55 -24 23 10 34 183 59
94 14 172 25 175 26 3 0 11 -3 19 -8z m-6654 -12 c63 -10 75 -14 75 -30 0 -15
-7 -19 -37 -18 -72 2 -148 23 -151 42 -4 21 9 21 113 6z m1193 -133 c52 -27
101 -85 117 -139 11 -37 15 -102 15 -245 0 -204 14 -341 51 -487 68 -266 190
-504 371 -720 467 -559 1237 -773 1936 -540 199 67 408 185 577 327 125 104
131 112 115 142 -18 35 -4 51 27 31 24 -16 25 -16 61 26 169 194 316 472 377
715 41 163 55 291 55 504 0 107 5 213 11 235 37 136 181 209 307 155 61 -26
114 -82 130 -139 15 -49 16 -369 1 -517 -45 -466 -250 -936 -552 -1269 l-55
-61 424 -444 c233 -245 424 -453 424 -462 0 -10 -6 -18 -13 -18 -7 0 -204 200
-437 445 -233 245 -427 445 -430 445 -3 0 -28 -23 -55 -51 -105 -107 -315
-259 -489 -354 -213 -115 -538 -219 -758 -241 l-68 -7 0 -308 0 -309 250 0
c195 0 248 3 245 13 -19 54 -75 242 -75 253 0 8 8 14 18 14 15 0 27 -26 62
-140 l44 -140 191 0 c217 0 272 -10 332 -63 48 -42 73 -99 73 -167 0 -72 -26
-126 -83 -176 l-45 -40 89 -209 c50 -115 88 -215 87 -223 -9 -44 -33 -2 -119
198 l-93 220 -143 0 -142 0 2 -27 c3 -40 -28 -43 -41 -4 l-11 31 -425 0 -426
0 0 -495 c0 -433 -2 -495 -15 -495 -13 0 -15 62 -15 495 l0 495 -204 0 c-236
0 -211 14 -222 -125 -7 -103 -19 -135 -39 -114 -10 11 -10 37 -1 127 l12 112
-356 0 c-260 1 -364 4 -390 14 l-36 12 -68 -173 c-62 -161 -82 -193 -100 -164
-3 5 26 89 64 186 l71 178 -25 26 c-82 86 -73 239 20 320 57 50 114 61 329 61
l191 0 24 92 c29 104 42 129 61 111 12 -12 8 -31 -37 -185 -5 -17 11 -18 240
-18 l246 0 0 308 0 308 -92 13 c-393 55 -801 239 -1113 501 l-98 83 -427 -433
c-401 -408 -461 -462 -448 -404 2 7 193 207 425 442 l422 429 -51 49 c-70 69
-201 232 -271 339 -70 108 -173 314 -221 446 -43 119 -91 303 -112 435 -21
134 -31 553 -15 621 25 104 126 178 232 170 31 -3 70 -12 87 -21z m-401 -220
c3 -3 3 -12 0 -21 -9 -23 -285 -23 -294 1 -3 9 -1 19 5 23 12 7 282 5 289 -3z
m-3142 -16 c0 -13 -37 -15 -259 -18 -196 -2 -261 1 -267 10 -4 7 -5 16 -3 20
3 5 123 7 267 6 225 -3 262 -5 262 -18z m1213 3 c-3 -17 -37 -18 -526 -21
-517 -2 -522 -2 -522 18 0 20 6 20 526 20 495 0 525 -1 522 -17z m1410 0 c-3
-17 -40 -18 -586 -21 -577 -2 -582 -2 -582 18 0 20 6 20 586 20 552 0 585 -1
582 -17z m5599 -58 c3 -9 4 -18 1 -20 -2 -2 -98 -5 -213 -5 -206 -2 -210 -1
-213 19 -3 21 -1 21 208 21 181 0 211 -2 217 -15z m2730 0 c3 -9 3 -18 1 -21
-6 -6 -2570 -5 -2576 1 -2 2 -2 11 1 20 6 13 142 15 1287 15 1145 0 1281 -2
1287 -15z m500 0 c3 -9 3 -18 0 -21 -6 -7 -329 -5 -335 1 -3 2 -2 11 1 20 5
13 31 15 167 15 136 0 162 -2 167 -15z m-9133 -423 c2 -4 2 -13 -2 -19 -7 -10
-494 -103 -541 -103 -23 0 -37 18 -24 31 10 10 477 97 530 98 17 1 34 -3 37
-7z m6566 -35 c172 -27 216 -36 218 -49 2 -9 -1 -18 -5 -21 -4 -3 -107 10
-228 29 -121 18 -226 33 -232 34 -7 0 -13 9 -13 20 0 26 0 26 260 -13z m606
-92 c305 -46 294 -44 294 -60 0 -8 -4 -16 -9 -19 -8 -5 -434 54 -498 69 -14 3
-23 13 -23 25 0 11 1 20 3 20 2 0 107 -16 233 -35z m-7878 -2 c2 -7 -7 -17
-20 -22 -13 -6 -207 -42 -432 -81 -402 -70 -454 -74 -418 -37 13 13 799 157
841 154 14 -1 26 -8 29 -14z m8455 -89 c41 -7 55 -20 39 -36 -7 -7 -30 -8 -69
-2 -50 8 -58 12 -61 32 -3 21 -1 23 25 18 15 -3 45 -8 66 -12z m372 -54 c66
-11 123 -20 128 -20 4 0 7 -9 7 -20 0 -25 -4 -25 -155 0 -66 11 -123 20 -127
20 -5 0 -8 9 -8 20 0 25 4 25 155 0z m-9845 -39 c0 -16 -14 -21 -87 -35 -109
-20 -133 -20 -133 -2 0 21 16 29 90 42 102 18 130 17 130 -5z m2220 -30 c0
-15 -19 -26 -93 -50 -107 -36 -140 -39 -135 -13 2 12 31 26 98 49 114 38 130
39 130 14z m5453 -62 c78 -22 150 -42 160 -45 20 -6 24 -44 4 -44 -24 0 -319
88 -329 98 -11 11 -3 32 13 32 6 0 74 -18 152 -41z m-5798 -54 c0 -16 -25 -27
-150 -67 -82 -26 -156 -46 -163 -43 -8 3 -12 13 -10 22 2 12 43 30 148 64 80
26 152 46 160 45 8 0 15 -10 15 -21z m6745 -218 c476 -138 595 -176 598 -189
2 -13 -3 -18 -19 -18 -29 0 -1200 337 -1212 349 -13 13 0 31 21 30 9 0 285
-78 612 -172z m-7205 73 c0 -11 -70 -38 -245 -97 -135 -44 -257 -82 -272 -82
-32 -1 -39 25 -10 37 68 28 491 160 507 159 11 -1 20 -9 20 -17z m-645 -209
c0 -13 -11 -23 -32 -30 -18 -6 -139 -44 -268 -86 -129 -41 -240 -75 -248 -75
-8 0 -12 9 -10 22 3 19 35 32 258 104 140 45 265 83 278 83 15 1 22 -5 22 -18z
m8669 -100 c36 -11 99 -29 139 -41 68 -20 89 -38 62 -55 -11 -7 -258 62 -277
77 -11 9 -8 38 4 38 3 0 36 -9 72 -19z m-7100 -69 c0 -19 -531 -397 -558 -397
-9 0 -16 7 -16 15 0 17 553 412 566 404 5 -3 9 -13 8 -22z m-861 1 c-3 -18
-504 -237 -520 -227 -30 19 12 44 237 140 243 104 289 118 283 87z m6182 -142
c227 -146 277 -187 225 -185 -33 1 -504 306 -505 327 0 10 7 17 18 16 9 0 127
-71 262 -158z m701 113 c134 -50 161 -66 141 -86 -9 -9 -39 -1 -129 32 -146
54 -173 67 -173 85 0 24 30 18 161 -31z m-8245 -5 c3 -6 1 -16 -5 -22 -13 -13
-433 -147 -443 -140 -14 8 -8 34 10 41 48 19 399 130 414 131 9 1 20 -4 24
-10z m9868 -57 c124 -36 157 -55 122 -68 -15 -6 -271 60 -297 77 -7 4 -9 14
-6 23 7 19 -1 20 181 -32z m-1082 -143 c221 -84 251 -100 230 -121 -11 -11
-27 -6 -394 134 -60 23 -78 34 -78 49 0 10 6 19 14 19 8 0 110 -37 228 -81z
m-8072 -33 c0 -20 -12 -27 -157 -89 -138 -60 -163 -66 -163 -43 0 20 4 22 155
88 136 59 165 67 165 44z m8707 -208 c194 -73 243 -95 243 -110 0 -10 -7 -18
-17 -18 -20 0 -471 169 -490 183 -19 14 -16 37 4 37 9 0 126 -41 260 -92z
m-1432 46 c53 -36 66 -56 45 -69 -16 -10 -130 67 -130 88 0 26 25 21 85 -19z
m-7700 -24 c0 -16 -79 -57 -126 -67 -22 -4 -29 -2 -29 10 0 19 8 25 75 54 55
25 80 26 80 3z m1255 -27 c-1 -21 -289 -228 -317 -228 -42 0 -10 33 132 136
149 107 185 125 185 92z m826 -65 c8 -13 -102 -118 -123 -118 -34 0 -22 28 33
77 60 54 77 62 90 41z m5043 -150 c105 -89 191 -167 191 -174 0 -35 -43 -8
-216 139 -175 148 -220 197 -180 197 8 0 101 -73 205 -162z m-7429 113 c0 -14
-32 -32 -145 -81 -135 -58 -183 -69 -173 -37 4 12 281 136 306 137 6 0 12 -8
12 -19z m8513 -172 c195 -125 287 -190 287 -201 0 -10 -7 -18 -14 -18 -26 0
-601 376 -604 395 -8 36 47 7 331 -176z m1534 50 c103 -40 194 -76 201 -82 16
-12 15 -26 -2 -33 -13 -5 -382 130 -400 146 -8 8 -2 40 8 40 2 0 89 -32 193
-71z m-10462 -54 c0 -13 -24 -28 -89 -56 -101 -44 -116 -47 -116 -20 0 14 23
29 93 59 50 22 97 39 102 38 6 -1 10 -11 10 -21z m2530 -19 c0 -19 -373 -338
-390 -333 -31 11 5 51 180 198 104 87 194 158 200 156 5 -2 10 -11 10 -21z
m-990 -15 c0 -19 -111 -95 -130 -88 -26 10 -17 24 43 66 56 41 87 48 87 22z
m-237 -163 c3 -16 -437 -338 -463 -338 -25 0 -26 19 -3 39 55 48 444 320 453
317 6 -1 11 -10 13 -18z m7073 -189 c199 -169 246 -219 204 -219 -20 0 -445
358 -445 375 0 13 10 25 20 25 4 0 103 -82 221 -181z m1304 -93 c164 -107 301
-198 302 -202 1 -5 -1 -15 -6 -23 -7 -11 -77 30 -315 184 -168 108 -306 203
-306 209 0 13 10 26 19 26 3 0 141 -88 306 -194z m-3183 -152 c98 -159 176
-293 174 -299 -11 -38 -43 4 -209 276 -163 267 -194 330 -155 317 7 -3 93
-135 190 -294z m502 206 c62 -82 75 -116 41 -108 -20 4 -135 158 -135 179 0
37 27 17 94 -71z m-4947 3 c5 -13 -445 -393 -465 -393 -8 0 -12 8 -10 20 4 24
436 391 457 387 8 -1 16 -7 18 -14z m1443 1 c0 -25 -83 -133 -102 -134 -28 0
-21 22 28 88 45 60 74 78 74 46z m483 -68 c7 -18 -351 -606 -369 -606 -8 0
-14 7 -14 16 0 16 318 551 348 587 18 21 28 22 35 3z m3924 -187 c110 -112
123 -132 102 -144 -17 -11 -229 204 -229 232 0 13 4 23 10 23 5 0 58 -50 117
-111z m-5250 75 c4 -11 -31 -53 -118 -140 -68 -68 -127 -124 -132 -124 -4 0
-10 7 -14 16 -4 11 31 53 118 140 68 68 127 124 132 124 4 0 10 -7 14 -16z
m-1937 -19 c0 -15 -247 -194 -268 -195 -8 0 -12 8 -10 20 4 24 246 200 265
193 7 -3 13 -11 13 -18z m6570 -172 c112 -145 129 -175 100 -180 -15 -3 -242
282 -248 312 -2 9 4 15 15 15 13 0 58 -50 133 -147z m-3985 104 c0 -20 -232
-337 -246 -337 -33 0 -10 44 101 195 114 154 145 184 145 142z m5643 -176
c103 -87 193 -165 199 -173 13 -15 2 -43 -15 -37 -6 2 -93 74 -193 159 -101
85 -189 160 -198 166 -15 12 -9 44 9 44 6 0 95 -71 198 -159z m-7463 -41 c0
-19 -205 -191 -224 -188 -33 7 -16 30 86 117 102 86 138 105 138 71z m7274
-664 c346 -363 580 -616 579 -625 -2 -9 -9 -16 -15 -16 -17 0 -1183 1221
-1183 1238 0 19 11 28 25 19 6 -4 274 -281 594 -616z m-6474 588 c0 -18 -743
-766 -756 -762 -7 2 -15 10 -17 17 -6 17 739 762 758 759 8 -2 15 -8 15 -14z
m5368 -279 c81 -104 146 -193 144 -199 -10 -31 -48 6 -181 177 -80 104 -146
192 -146 196 0 12 13 22 24 18 6 -2 77 -88 159 -192z m-833 110 c30 -52 34
-85 11 -85 -15 0 -74 109 -67 125 10 26 24 16 56 -40z m-3986 -189 c-59 -80
-114 -146 -121 -146 -30 0 -7 44 93 179 95 128 108 142 121 128 14 -13 4 -31
-93 -161z m700 101 c-2 -18 -232 -398 -248 -409 -13 -9 -26 -1 -26 17 0 11
215 368 243 403 13 16 32 10 31 -11z m3407 -109 c168 -276 169 -278 135 -278
-17 0 -199 296 -191 310 12 20 31 9 56 -32z m-2644 -24 c7 -19 -215 -803 -233
-824 -10 -10 -17 -11 -24 -4 -8 8 24 133 106 420 64 225 118 412 121 417 7 12
23 8 30 -9z m1449 -415 c28 -195 49 -360 47 -366 -6 -15 -19 -17 -28 -4 -9 16
-106 705 -100 719 3 8 11 12 18 10 8 -3 29 -123 63 -359z m420 270 c12 -21 84
-264 84 -287 0 -17 -5 -23 -17 -20 -12 2 -29 43 -59 143 -24 77 -44 148 -44
158 0 19 25 23 36 6z m-3529 -74 c2 -6 -60 -95 -137 -198 -127 -170 -170 -214
-170 -172 0 8 62 98 138 200 125 170 158 202 169 170z m5381 -141 c93 -120
117 -166 88 -168 -9 -1 -195 228 -217 267 -11 19 -4 37 14 36 7 0 58 -61 115
-135z m-3322 -162 c-20 -212 -22 -222 -42 -222 -18 0 -18 26 2 235 17 169 27
206 48 185 7 -7 5 -67 -8 -198z m2530 83 c63 -101 76 -135 50 -135 -16 0 -146
201 -146 226 0 38 38 2 96 -91z m-3490 61 c3 -8 -51 -157 -120 -333 -68 -175
-128 -326 -131 -335 -8 -19 -30 -24 -40 -8 -5 7 228 619 256 673 12 21 28 22
35 3z m-531 -16 c8 -13 -76 -160 -92 -160 -19 0 -25 18 -12 42 28 54 79 128
88 128 6 0 13 -5 16 -10z m-1795 -97 c0 -19 -258 -283 -276 -283 -39 0 -15 34
112 161 76 76 144 139 151 139 7 0 13 -8 13 -17z m5355 -217 c80 -187 94 -236
66 -236 -11 0 -192 421 -185 432 17 27 40 -10 119 -196z m-389 -109 c46 -148
82 -273 78 -278 -19 -31 -36 0 -83 149 -133 421 -130 407 -94 400 10 -2 42
-87 99 -271z m-3332 150 c-1 -8 -70 -128 -154 -266 -138 -228 -180 -282 -180
-235 0 15 237 417 293 497 20 29 43 31 41 4z m4479 -259 c75 -123 137 -230
139 -238 2 -9 -4 -15 -15 -15 -19 0 -287 426 -287 457 0 48 39 0 163 -204z
m-2869 44 c5 -9 -71 -766 -79 -789 -7 -20 -35 -15 -35 5 0 11 18 192 40 403
22 211 40 385 40 387 0 6 29 1 34 -6z m1173 -118 c19 -114 21 -179 3 -179 -11
0 -19 27 -32 115 -10 63 -15 121 -13 128 11 31 31 1 42 -64z m-1807 14 c-1
-39 -75 -281 -88 -286 -26 -8 -23 35 13 161 21 73 39 135 42 140 10 16 33 6
33 -15z m1180 -378 c0 -278 -2 -320 -15 -320 -13 0 -15 42 -15 320 0 278 2
320 15 320 13 0 15 -42 15 -320z m1744 239 c20 -49 26 -73 18 -81 -6 -6 -14
-8 -19 -5 -16 10 -65 136 -59 152 10 27 31 5 60 -66z m-3534 -97 c1 -32 -333
-872 -346 -872 -7 0 -16 5 -19 10 -7 11 318 853 337 877 13 16 28 7 28 -15z
m3160 -215 c49 -159 56 -204 28 -195 -13 5 -118 318 -118 354 0 28 11 37 26
22 7 -7 36 -89 64 -181z m-700 144 c0 -5 11 -86 25 -181 14 -95 25 -180 25
-191 0 -27 -28 -24 -35 4 -12 53 -53 362 -49 369 7 11 34 10 34 -1z m1287
-336 c73 -171 132 -316 133 -322 0 -7 -8 -13 -18 -13 -13 0 -47 71 -150 313
-73 171 -132 318 -132 325 0 8 8 12 17 10 13 -2 56 -94 150 -313z m-3271 181
c6 -16 -50 -214 -65 -229 -8 -8 -14 -8 -22 0 -15 15 49 243 68 243 8 0 16 -6
19 -14z m1314 -517 c0 -119 3 -161 13 -163 6 -2 54 -11 105 -20 82 -15 235
-63 269 -84 9 -6 -4 -49 -48 -162 -33 -85 -62 -156 -64 -158 -1 -2 -58 16
-126 39 -238 81 -403 62 -403 -46 0 -57 40 -86 261 -195 185 -91 210 -107 272
-168 83 -82 111 -145 118 -272 14 -232 -114 -410 -351 -486 -68 -22 -105 -27
-231 -31 -176 -6 -292 10 -416 58 l-79 30 0 190 0 189 48 -24 c159 -80 413
-126 524 -96 48 14 88 61 88 104 0 58 -32 84 -209 169 -273 131 -343 186 -404
315 -31 64 -32 72 -32 192 0 119 1 128 31 190 40 83 110 152 199 196 94 45
169 63 298 71 l107 6 0 157 c0 86 3 160 6 163 19 18 24 -19 24 -164z m-6049
-169 c238 -34 415 -156 505 -345 66 -139 78 -205 78 -440 0 -186 -2 -219 -22
-290 -72 -258 -226 -415 -472 -480 -40 -10 -121 -19 -210 -22 -122 -4 -161 -2
-245 16 -272 56 -448 228 -515 501 -42 173 -37 439 12 600 63 205 208 358 403
425 121 41 320 56 466 35z m3409 -24 c108 -27 207 -63 215 -77 5 -7 -108 -315
-119 -327 -2 -1 -29 9 -60 23 -148 65 -326 85 -412 46 -85 -38 -150 -131 -179
-253 -19 -83 -19 -283 0 -366 59 -252 255 -320 593 -207 57 19 108 35 113 35
6 0 8 -69 7 -172 l-3 -173 -59 -23 c-110 -44 -189 -56 -371 -57 -193 0 -250
11 -375 72 -93 45 -210 158 -257 248 -100 190 -127 514 -63 740 80 282 289
470 575 515 99 15 287 4 395 -24z m5881 5 c110 -25 252 -79 246 -94 -3 -7 -30
-77 -62 -157 -31 -79 -58 -146 -59 -148 -2 -2 -59 16 -127 39 -238 81 -403 62
-403 -46 0 -57 40 -86 261 -195 185 -91 210 -107 272 -168 83 -82 111 -145
118 -272 14 -232 -114 -410 -351 -486 -68 -22 -105 -27 -231 -31 -176 -6 -292
10 -416 58 l-79 30 0 190 0 189 48 -24 c159 -80 413 -126 524 -96 48 14 88 61
88 104 0 58 -32 84 -209 169 -273 131 -343 186 -404 315 -31 64 -32 72 -32
192 0 119 1 128 31 190 66 137 208 229 399 260 85 13 285 3 386 -19z m3034 14
c292 -51 475 -233 540 -540 24 -110 24 -369 0 -480 -78 -367 -323 -554 -727
-555 -393 0 -633 171 -725 518 -23 86 -26 117 -26 272 -1 188 10 258 57 382
83 222 254 357 509 403 99 18 267 18 372 0z m-13900 -15 c237 -27 380 -121
445 -295 16 -43 24 -90 28 -166 11 -242 -84 -417 -273 -504 -92 -43 -154 -55
-302 -62 l-123 -6 0 -253 0 -254 -210 0 -210 0 0 775 0 775 278 0 c152 0 318
-5 367 -10z m3105 0 c226 -24 392 -103 506 -242 118 -142 170 -361 145 -605
-33 -323 -193 -546 -458 -638 -131 -46 -222 -55 -549 -55 l-304 0 0 768 c0
423 3 772 7 775 10 11 547 8 653 -3z m3487 -760 c139 -421 252 -768 253 -772
0 -5 -103 -8 -228 -8 l-228 0 -17 68 c-10 37 -27 102 -39 145 l-20 77 -251 -2
-250 -3 -27 -100 c-15 -55 -33 -119 -39 -142 l-12 -43 -230 0 c-181 0 -230 3
-226 13 7 19 457 1404 478 1475 l20 62 282 -2 281 -3 253 -765z m2733 595 l0
-175 -190 0 -190 0 0 -600 0 -600 -210 0 -210 0 0 600 0 600 -185 0 -185 0 0
175 0 175 585 0 585 0 0 -175z m2450 -115 l0 -290 240 0 240 0 2 288 3 287
210 0 210 0 3 -772 2 -773 -215 0 -215 0 0 315 0 315 -240 0 -240 0 0 -315 0
-315 -210 0 -210 0 0 775 0 775 210 0 210 0 0 -290z m3341 -208 c59 -272 113
-529 120 -572 7 -44 16 -77 19 -75 4 3 10 28 14 57 17 128 147 726 231 1061
l7 27 194 0 c107 0 194 -2 194 -5 0 -3 38 -173 85 -379 79 -350 154 -719 156
-769 0 -12 14 48 30 133 17 85 73 348 125 583 51 236 94 430 94 433 0 2 90 4
200 4 153 0 200 -3 200 -12 0 -7 -84 -356 -187 -775 l-188 -763 -247 0 c-226
0 -247 1 -252 18 -16 53 -178 814 -192 906 l-18 109 -23 -129 c-13 -71 -62
-301 -108 -512 -47 -210 -85 -385 -85 -387 0 -3 -112 -5 -249 -5 l-249 0 -187
753 c-102 414 -188 763 -192 775 l-5 22 203 -2 203 -3 107 -493z m-6915 -2842
c38 0 44 3 46 23 1 12 5 -45 8 -128 15 -315 7 -3031 -8 -2882 -2 13 -11 17
-46 17 l-45 0 -4 -47 c-2 -27 -3 665 -3 1537 0 872 1 1561 3 1533 l4 -53 45 0z
m1380 0 c25 0 34 4 35 18 1 9 5 -8 10 -38 10 -72 10 -2848 0 -2920 -5 -30 -9
-49 -10 -42 0 7 -15 12 -35 12 -34 0 -35 -1 -39 -47 -2 -27 -3 665 -3 1537 0
872 1 1561 3 1533 4 -53 4 -53 39 -53z m200 0 c28 0 34 4 36 23 1 12 5 -45 8
-128 15 -315 7 -3031 -8 -2882 -2 12 -11 17 -36 17 -34 0 -35 -1 -39 -47 -2
-27 -3 665 -3 1537 0 872 1 1561 3 1533 4 -53 4 -53 39 -53z m2764 0 c14 0 20
8 22 33 5 52 18 -1029 18 -1518 0 -489 -13 -1570 -18 -1517 -2 24 -8 32 -22
32 -15 0 -20 -9 -23 -47 -2 -27 -3 665 -3 1537 0 872 1 1561 3 1533 3 -44 7
-53 23 -53z m-9279 0 c11 0 20 7 20 18 1 9 5 -8 10 -38 10 -72 10 -2848 0
-2920 -5 -30 -9 -49 -10 -42 0 6 -10 12 -21 12 -16 0 -20 -7 -22 -37 -1 -21
-5 273 -8 652 -6 628 1 2498 8 2398 3 -35 7 -43 23 -43z m2569 0 c36 0 39 2
42 33 5 52 18 -1029 18 -1518 0 -489 -13 -1570 -18 -1517 -3 30 -6 32 -43 32
-38 0 -39 -1 -41 -37 -1 -21 -5 273 -8 652 -6 628 1 2498 8 2398 3 -43 3 -43
42 -43z m2566 0 c41 0 44 2 46 28 1 15 5 -92 9 -238 14 -570 7 -2887 -9 -2782
-3 19 -9 22 -48 22 -44 0 -44 0 -46 -37 -1 -21 -5 273 -8 652 -6 628 1 2498 8
2398 l3 -43 45 0z m195 0 c30 0 39 4 40 18 1 9 5 -8 10 -38 10 -72 10 -2848 0
-2920 -5 -30 -9 -49 -10 -42 0 7 -16 12 -41 12 -39 0 -40 -1 -42 -37 -1 -21
-5 273 -8 652 -6 628 1 2498 8 2398 3 -43 3 -43 43 -43z m1384 0 c31 0 34 3
37 33 5 52 18 -1029 18 -1518 0 -489 -13 -1570 -18 -1517 -3 29 -6 32 -38 32
-32 0 -34 -2 -36 -37 -1 -21 -5 273 -8 652 -6 628 1 2498 8 2398 3 -42 4 -43
37 -43z m2761 0 c8 0 15 8 15 18 1 9 5 -8 10 -38 10 -72 10 -2848 0 -2920 -5
-30 -9 -49 -10 -42 0 6 -8 12 -16 12 -10 0 -16 -12 -17 -37 -1 -21 -5 273 -8
652 -6 628 1 2498 8 2398 2 -29 8 -43 18 -43z m-9627 -1350 c1 -569 -11 -1718
-17 -1652 -3 25 -8 32 -24 32 -16 0 -19 -5 -15 -26 3 -19 2 -23 -7 -14 -16 16
-16 3024 1 3041 9 9 11 7 6 -10 -4 -16 -1 -21 16 -21 17 0 21 7 23 33 4 73 15
-839 17 -1383z m2908 1350 l26 0 -24 27 c-23 26 -23 26 12 -2 29 -24 38 -39
43 -77 9 -61 7 -2818 -2 -2882 -5 -31 -13 -51 -22 -53 -13 -4 -13 -3 0 6 12 8
7 11 -22 11 -33 0 -37 -3 -40 -27 -7 -56 -18 897 -18 1517 0 615 12 1579 18
1513 3 -28 7 -33 29 -33z m3032 -1350 c1 -569 -11 -1718 -17 -1652 -3 30 -6
32 -42 32 -35 0 -39 -3 -42 -27 -7 -56 -18 898 -18 1521 0 621 11 1559 18
1504 3 -25 7 -28 43 -28 37 0 39 2 41 33 4 73 15 -839 17 -1383z m-258 1350
c35 0 39 2 41 28 1 15 5 -92 9 -238 14 -570 7 -2887 -9 -2782 -3 18 -10 22
-42 22 -35 0 -39 -3 -42 -27 -7 -56 -18 898 -18 1521 0 621 11 1559 18 1504 3
-25 7 -28 43 -28z m648 -1405 c1 -835 -8 -1647 -17 -1587 -3 18 -10 22 -38 22
-25 0 -34 -5 -36 -17 -15 -159 -24 2692 -8 2917 3 58 7 97 8 88 2 -14 11 -18
37 -18 31 0 35 3 37 28 7 102 16 -651 17 -1433z m-202 -75 c0 -1012 -6 -1602
-15 -1507 -2 12 -11 17 -37 17 -26 0 -35 -4 -37 -17 -15 -159 -24 2692 -8
2917 3 58 7 97 8 88 2 -14 11 -18 37 -18 29 0 35 4 37 23 9 118 15 -492 15
-1503z m-1964 983 c15 -1130 4 -2462 -20 -2491 -14 -16 -14 -16 -9 1 4 12 0
17 -16 17 -18 0 -19 -2 -7 -17 8 -9 -2 -5 -22 10 l-36 27 -6 107 c-9 138 -9
2598 0 2725 6 96 7 98 37 118 17 11 40 20 52 20 21 0 21 -2 27 -517z m5688
162 c7 -120 9 -607 6 -1325 l-5 -1135 -25 -100 -24 -100 -5 755 c-3 415 -3
1090 0 1500 l6 745 18 -75 c12 -47 23 -147 29 -265z m-7272 -1031 c1 -562 -9
-1578 -15 -1571 -8 7 -56 191 -74 279 -19 97 -20 138 -20 1169 l0 1069 25 130
c14 72 36 161 48 198 l22 67 6 -365 c3 -201 7 -640 8 -976z m1707 1147 c13
-46 35 -140 49 -210 l26 -126 0 -970 0 -970 -26 -85 c-14 -47 -40 -122 -58
-168 l-32 -84 -6 584 c-8 753 1 2170 13 2137 5 -13 20 -62 34 -108z m671
-1266 c0 -407 -3 -887 -6 -1067 l-6 -328 -58 153 -57 152 0 1065 0 1065 58
166 57 167 6 -316 c4 -175 6 -650 6 -1057z m-1785 628 c2 -343 2 -911 0 -1261
l-3 -638 -54 -60 -54 -59 0 1380 0 1380 54 -60 54 -59 3 -623z m795 -628 c0
-412 -3 -884 -6 -1047 l-6 -298 -55 88 -55 87 0 1155 0 1155 29 55 c16 30 40
75 55 100 l26 45 6 -295 c3 -162 6 -632 6 -1045z m-3579 -20 l-3 -1080 -30
-104 -30 -104 -6 209 c-9 296 -10 1817 -2 2134 l6 265 34 -120 33 -120 -2
-1080z m6711 1021 c16 -41 16 -1971 1 -2012 -7 -16 -26 -86 -44 -156 l-33
-127 -6 271 c-9 352 -9 1720 0 2053 l6 257 33 -128 c18 -71 37 -142 43 -158z
m-8114 204 c13 -25 15 -171 15 -1212 0 -1168 0 -1183 -20 -1216 -11 -18 -25
-30 -30 -27 -7 4 -10 443 -10 1246 0 1085 2 1239 15 1239 8 0 21 -13 30 -30z
m10283 -1828 l-3 -617 -30 110 -30 110 -3 995 -2 995 32 130 33 130 3 -618 c1
-339 1 -895 0 -1235z m-9469 698 c0 -377 -2 -824 -6 -994 l-6 -309 -31 79 -31
79 0 1055 0 1055 30 85 30 85 6 -225 c4 -124 7 -533 8 -910z m10646 998 c9
-175 2 -2274 -7 -2284 -5 -4 -17 1 -28 11 -20 18 -20 30 -20 1189 0 1044 2
1174 16 1194 8 12 19 22 24 22 4 0 11 -60 15 -132z m-7075 -1074 l-1 -1029
-53 -57 -53 -58 -6 573 c-3 314 -3 829 0 1142 l6 570 54 -56 53 -56 0 -1029z
m4330 -5 l0 -1100 -42 3 -43 3 -3 1089 c-2 865 0 1091 10 1098 7 4 28 8 46 8
l32 0 0 -1101z m200 1 l0 -956 -45 -44 -45 -44 0 1044 0 1044 45 -44 45 -44 0
-956z m-4134 -1038 c-3 -2 -21 14 -41 37 -20 22 -45 43 -56 46 -19 6 -19 28
-19 943 l0 937 34 19 c19 10 45 30 58 43 l23 25 3 -1023 c1 -562 0 -1024 -2
-1027z m3742 1161 c1 -489 -2 -944 -6 -1011 l-7 -124 -42 52 -43 53 0 906 0
907 43 51 c23 29 45 52 48 52 3 1 6 -398 7 -886z m-3940 -122 l2 -921 -45 -11
c-25 -6 -48 -15 -51 -20 -3 -5 -9 -9 -15 -9 -5 0 -9 368 -9 964 l0 964 58 -24
57 -23 3 -920z m-6157 -1 c0 -916 0 -924 -21 -944 l-20 -20 0 964 0 964 20
-20 c21 -20 21 -28 21 -944z m11078 84 c1 -454 -1 -864 -5 -910 l-7 -85 -26 6
c-54 14 -51 -36 -51 907 l0 879 33 14 c17 8 37 14 44 15 8 0 11 -210 12 -826z
m164 793 l28 -22 0 -855 0 -855 -32 -27 c-18 -15 -36 -25 -41 -22 -4 3 -8 410
-8 905 0 712 3 899 13 899 6 0 25 -10 40 -23z m-11443 -1297 c-5 -390 -6 -422
-20 -385 -12 34 -15 161 -18 810 -2 719 -1 773 15 815 18 44 18 40 23 -385 3
-236 3 -621 0 -855z m4770 415 c0 -597 -3 -865 -10 -865 -16 0 -74 31 -82 44
-4 6 -8 379 -8 828 l0 817 26 20 c15 12 37 21 50 21 l24 0 0 -865z m2778 -458
l-3 -432 -20 45 c-10 25 -38 85 -62 133 l-43 88 0 612 0 612 63 124 62 124 3
-437 c1 -241 1 -632 0 -869z m3532 459 l0 -834 -38 15 -39 15 -7 408 c-4 225
-4 588 0 808 l7 400 31 10 c17 5 34 10 39 11 4 1 7 -374 7 -833z m-198 400 c2
-215 2 -572 0 -793 -3 -371 -5 -403 -21 -403 -9 0 -27 -7 -39 -16 l-22 -15 0
825 0 824 39 -15 40 -15 3 -392z m2549 -392 c0 -587 -1 -627 -20 -710 -11 -49
-22 -98 -24 -109 -3 -11 -5 351 -5 805 l-1 825 25 -95 24 -95 1 -621z m-8489
608 c22 -74 23 -94 26 -592 l3 -515 -25 -98 c-14 -54 -36 -121 -50 -150 l-24
-52 0 795 0 795 24 -53 c13 -29 34 -87 46 -130z m5158 -617 l0 -796 -21 11
c-11 6 -32 10 -47 8 l-27 -3 -3 784 -2 783 22 -5 c13 -3 32 -1 43 3 11 5 23 9
28 9 4 1 7 -357 7 -794z m-8509 -353 c-2 -222 -5 -402 -6 -400 -2 2 -15 69
-29 149 -25 143 -26 155 -26 610 0 463 0 464 27 619 l28 155 5 -365 c3 -201 3
-546 1 -768z m2979 -5 l-5 -368 -45 46 -45 45 0 640 0 639 45 46 45 46 5 -363
c3 -200 3 -529 0 -731z m-595 363 c0 -665 -1 -695 -18 -698 -10 -2 -29 -1 -43
2 l-24 6 0 686 0 685 23 9 c12 5 31 8 42 7 20 -2 20 -9 20 -697z m-1586 -2 l0
-693 -32 65 -32 65 -3 550 -3 549 32 78 c17 43 33 78 35 78 2 0 4 -312 3 -692z
m10432 600 l29 -83 0 -520 0 -520 -27 -75 c-14 -41 -30 -79 -35 -85 -4 -5 -8
303 -8 685 0 381 3 690 7 687 3 -4 19 -44 34 -89z m-1151 -598 l-1 -605 -39
-44 -40 -44 0 689 0 688 40 -39 40 -39 0 -606z m191 -302 l-3 -348 -33 28 -34
27 0 590 -1 589 33 34 32 33 5 -303 c3 -167 3 -459 1 -650z m-11462 311 c1
-514 0 -549 -18 -589 l-18 -41 -8 311 c-4 172 -4 454 0 628 8 315 8 317 26
277 16 -37 18 -85 18 -586z m3773 531 c4 0 8 -242 8 -539 l0 -538 -40 -28
c-22 -15 -40 -32 -40 -36 0 -5 -4 -9 -10 -9 -7 0 -10 210 -10 611 l0 611 42
-36 c23 -20 45 -36 50 -36z m3143 -10 l33 0 4 -262 c1 -145 1 -381 -1 -525 -3
-247 -4 -261 -21 -251 -9 6 -24 8 -33 5 -17 -7 -57 -77 -57 -101 0 -8 -4 -18
-10 -21 -7 -4 -10 202 -10 612 l0 618 31 -38 c24 -29 37 -37 64 -37z m-6515
-537 c0 -340 -4 -572 -9 -563 -25 42 -35 184 -38 544 -3 311 -1 397 12 479 15
96 21 117 31 117 2 0 4 -260 4 -577z m200 6 l-1 -514 -23 -28 -23 -28 -6 203
c-9 258 -9 492 0 740 l6 196 24 -28 23 -28 0 -513z m4168 -301 l-3 -293 -24
70 c-13 39 -36 93 -50 120 l-26 50 -2 353 -2 353 27 38 c16 21 39 71 53 110
l24 72 3 -290 c1 -160 1 -423 0 -583z m-1812 667 c24 -79 25 -83 21 -380 l-3
-300 -36 -115 -37 -115 0 550 c0 499 2 545 15 495 8 -30 26 -91 40 -135z
m1016 -87 c1 -150 1 -399 -1 -554 l-3 -281 -44 16 -44 16 2 524 3 524 35 13
c19 7 38 13 42 13 3 1 8 -122 10 -271z m8668 -280 l-1 -553 -19 49 c-11 27
-24 54 -30 60 -6 6 -10 157 -10 441 l0 430 25 50 c13 28 25 56 25 63 0 6 2 12
5 12 3 0 5 -249 5 -552z m-11074 355 c24 -99 25 -112 21 -380 -4 -256 -6 -286
-29 -378 l-25 -100 -8 210 c-6 167 -1 773 6 795 1 3 4 -6 6 -20 2 -14 16 -71
29 -127z m11864 -355 l0 -493 -27 28 -28 27 0 456 c0 393 2 456 15 464 40 26
40 30 40 -482z m-10052 -240 l-3 -243 -43 115 -42 115 0 255 0 255 42 115 43
115 3 -242 c1 -134 1 -352 0 -485z m10244 300 c1 -290 0 -317 -18 -346 -10
-18 -22 -32 -26 -32 -10 0 -11 545 -1 654 6 76 6 77 25 58 18 -18 19 -38 20
-334z m-392 -64 l0 -335 -22 3 -23 3 -3 330 -2 331 25 2 25 2 0 -336z m-12431
6 l0 -225 -29 -39 -30 -40 0 300 1 299 29 -35 29 -35 0 -225z m991 -2 l0 -283
-35 38 -35 38 0 205 0 205 32 40 c17 21 33 39 35 39 2 0 3 -127 3 -282z
m12013 258 c16 -12 17 -32 15 -212 -3 -198 -3 -199 -25 -202 l-23 -3 0 215 c0
119 3 216 8 216 4 0 15 -7 25 -14z m-13603 -256 l0 -197 -25 -23 -25 -23 0
243 0 243 25 -23 25 -23 0 -197z m-795 -158 c-2 -3 -11 1 -20 8 -12 10 -15 41
-15 168 0 134 2 158 18 175 16 18 17 11 20 -163 1 -101 0 -185 -3 -188z
m14599 312 c13 -5 16 -27 16 -134 0 -130 -3 -140 -41 -140 -5 0 -9 62 -9 140
0 78 4 140 9 140 5 0 16 -3 25 -6z m-13004 -155 c0 -131 0 -131 -22 -125 -13
3 -26 6 -30 6 -5 0 -8 54 -8 119 0 130 -4 119 53 130 4 0 7 -58 7 -130z m2180
-2 l0 -103 -42 2 -43 2 -3 101 -3 101 46 0 45 0 0 -103z m11030 -3 c0 -77 -2
-84 -20 -84 -19 0 -20 7 -20 89 0 84 1 89 20 84 18 -5 20 -14 20 -89z m-15000
21 c0 -30 -2 -55 -4 -55 -25 0 -36 17 -36 55 0 39 7 52 33 54 4 1 7 -24 7 -54z
m15198 -37 c-2 -31 -8 -44 -20 -46 -15 -3 -18 4 -18 42 0 40 3 46 21 46 18 0
20 -5 17 -42z m190 -21 c2 -10 -3 -17 -12 -17 -10 0 -16 9 -16 21 0 24 23 21
28 -4z m-6368 -3576 c97 -69 92 -204 -10 -258 -54 -29 -84 -29 -140 0 -95 48
-108 169 -27 245 47 44 125 50 177 13z m-4950 -881 l0 -820 -130 0 -130 0 0
820 0 820 130 0 130 0 0 -820z m7730 0 l0 -820 -125 0 -125 0 0 820 0 820 125
0 125 0 0 -820z m-8280 650 l0 -90 -235 0 -235 0 0 -690 0 -690 -125 0 -125 0
0 690 0 690 -232 2 -233 3 -3 88 -3 87 596 0 595 0 0 -90z m3379 -578 c94
-463 138 -657 143 -640 7 22 288 1293 288 1303 0 3 23 5 50 5 l50 0 0 -292 0
-293 -114 -490 -113 -490 -166 -3 c-151 -2 -166 -1 -171 15 -15 48 -386 1526
-386 1539 0 12 23 14 142 12 l142 -3 135 -663z m725 651 c2 -10 64 -308 136
-663 73 -355 133 -646 135 -648 1 -2 9 28 18 65 8 37 75 337 148 666 l132 597
144 0 c79 0 143 -2 143 -4 0 -5 -383 -1436 -406 -1513 l-15 -53 -164 0 c-162
0 -165 0 -170 23 -3 12 -50 226 -105 476 l-100 454 0 309 0 308 49 0 c39 0 51
-4 55 -17z m2146 -183 l0 -170 95 0 95 0 0 -85 0 -85 -95 0 -95 0 0 -363 c0
-356 0 -364 23 -407 28 -57 70 -81 152 -88 l65 -5 0 -78 0 -78 -35 -7 c-64
-12 -277 1 -310 18 -71 38 -126 132 -144 248 -6 36 -11 219 -11 413 l0 347
-80 0 -80 0 0 85 0 85 80 0 80 0 0 170 0 170 130 0 130 0 0 -170z m-5220 -188
c34 -15 83 -53 126 -96 115 -115 123 -160 124 -698 l0 -378 -129 0 -129 0 -4
408 c-4 437 -7 460 -61 536 -25 36 -90 66 -142 66 -38 0 -131 -19 -167 -35
-16 -6 -18 1 -18 77 l0 84 73 28 c133 52 229 54 327 8z m1020 -67 l0 -94 -64
-31 c-127 -60 -196 -200 -196 -395 0 -141 28 -223 102 -297 100 -100 264 -115
420 -37 31 16 59 33 63 39 3 5 12 10 19 10 19 0 100 -126 93 -144 -9 -23 -107
-97 -162 -122 -108 -49 -279 -56 -397 -15 -173 60 -317 227 -362 421 -22 90
-20 240 2 326 31 118 78 201 162 284 41 41 99 88 128 103 50 27 169 59 185 50
4 -2 7 -46 7 -98z m6718 68 c30 -14 84 -55 122 -92 117 -114 129 -184 130
-763 l0 -318 -130 0 -130 0 -1 313 c0 413 -8 520 -43 591 -39 80 -78 101 -181
100 -47 -1 -98 -8 -122 -17 l-43 -16 0 84 0 83 70 27 c130 50 234 52 328 8z
m-6537 11 c91 -27 165 -73 234 -145 111 -118 169 -275 163 -443 l-3 -81 -362
-3 -363 -2 0 95 0 95 244 0 243 0 -8 49 c-10 64 -41 123 -90 172 -41 41 -108
78 -141 79 -16 0 -18 12 -18 100 0 115 -1 114 101 84z m5029 -88 l0 -104 -37
-13 c-49 -16 -114 -83 -145 -150 -105 -224 -27 -557 144 -615 l33 -11 3 -107
3 -107 -48 7 c-270 39 -453 281 -453 599 0 121 24 227 72 318 43 83 147 186
226 226 54 27 149 57 190 60 9 1 12 -26 12 -103z m171 90 c86 -19 154 -54 219
-113 l52 -48 -54 -67 c-29 -37 -58 -67 -64 -67 -6 -1 -19 8 -30 20 -28 31
-107 68 -159 76 l-45 6 0 103 c0 57 3 104 8 104 4 0 37 -7 73 -14z m-1881
-591 l0 -595 -130 0 -130 0 0 595 0 595 130 0 130 0 0 -595z m2078 -358 c23
-34 42 -67 42 -74 0 -17 -99 -102 -150 -128 -38 -19 -130 -45 -160 -45 -6 0
-10 45 -10 105 l0 105 28 6 c52 11 107 34 152 64 25 16 47 30 50 30 3 0 24
-28 48 -63z m-1728 -4887 l0 -370 -40 0 -40 0 0 370 0 370 40 0 40 0 0 -370z
m-3792 243 c16 -43 65 -170 108 -282 55 -144 80 -200 87 -190 5 8 55 133 111
279 l102 265 62 3 62 3 0 -346 0 -345 -40 0 -40 0 -2 295 -3 295 -114 -295
-114 -296 -35 3 -34 3 -112 292 -111 292 -3 -294 -2 -295 -40 0 -40 0 0 345 0
345 64 0 64 0 30 -77z m1972 -33 l0 -60 75 0 75 0 0 -30 0 -29 -72 -3 -73 -3
-3 -145 c-5 -225 6 -250 103 -250 54 0 55 -1 55 -29 0 -32 -17 -41 -85 -41
-49 0 -102 26 -129 63 -19 26 -21 45 -24 218 l-4 189 -34 0 c-47 0 -46 29 3
55 26 14 40 31 50 60 7 22 15 46 18 53 2 6 14 12 25 12 18 0 20 -6 20 -60z
m-976 -61 c52 -14 121 -80 143 -137 12 -32 18 -73 17 -129 0 -70 -4 -90 -30
-140 -39 -76 -96 -113 -187 -120 -117 -10 -210 53 -243 163 -19 62 -18 148 2
215 36 121 165 185 298 148z m658 -16 c66 -38 73 -64 76 -295 l4 -208 -41 0
-41 0 0 183 c0 199 -9 239 -60 264 -64 32 -159 4 -195 -57 -18 -31 -20 -56
-23 -212 l-4 -178 -39 0 -39 0 0 260 0 260 34 0 c31 0 34 -3 41 -36 l6 -36 27
25 c45 43 90 58 159 53 36 -2 76 -12 95 -23z m872 18 c3 -5 3 -23 0 -39 -6
-29 -9 -31 -53 -30 -58 2 -104 -23 -134 -72 -20 -32 -22 -51 -25 -207 l-4
-173 -39 0 -39 0 0 260 0 260 35 0 c35 0 35 0 35 -45 0 -25 2 -45 5 -45 3 0
20 16 38 36 17 21 45 43 62 50 34 15 111 18 119 5z m419 -28 c56 -39 88 -104
90 -184 l2 -64 -177 -3 c-177 -2 -178 -3 -178 -25 0 -33 41 -108 72 -130 45
-33 131 -34 241 -1 14 4 17 -1 17 -30 0 -34 -2 -36 -52 -51 -114 -34 -220 -14
-288 54 -58 58 -74 111 -68 223 5 92 26 143 76 191 67 64 190 74 265 20z m489
27 c60 -17 95 -53 107 -111 6 -27 11 -131 11 -230 l0 -180 -32 3 c-27 3 -33 8
-41 37 l-8 34 -33 -32 c-37 -36 -81 -51 -146 -51 -93 0 -160 63 -160 150 0
110 100 170 281 170 59 0 59 0 59 30 0 47 -26 99 -55 110 -39 15 -93 12 -152
-9 l-51 -17 -11 23 c-17 37 -14 40 37 57 89 28 135 32 194 16z"/>
<path d="M8559 18050 c-151 -27 -231 -152 -246 -386 -11 -179 26 -339 95 -416
52 -58 103 -81 193 -86 225 -13 329 127 329 443 0 192 -37 314 -116 384 -62
54 -160 78 -255 61z"/>
<path d="M20853 18050 c-126 -26 -200 -110 -234 -266 -17 -76 -16 -282 0 -359
25 -114 79 -197 156 -238 33 -18 57 -22 140 -22 115 0 158 16 214 81 67 75 91
171 91 359 0 193 -25 286 -97 366 -21 23 -56 50 -78 60 -50 21 -137 30 -192
19z"/>
<path d="M6980 17861 l0 -181 43 0 c101 1 180 39 214 103 22 43 22 142 0 184
-25 47 -68 65 -169 71 l-88 5 0 -182z"/>
<path d="M10072 17609 l3 -434 95 2 c117 2 191 27 249 83 50 49 67 82 92 177
22 87 25 234 8 329 -23 126 -90 215 -188 249 -25 9 -94 19 -154 22 l-107 6 2
-434z"/>
<path d="M13251 18048 c-7 -35 -41 -177 -77 -316 -35 -139 -64 -258 -64 -263
0 -5 68 -9 160 -9 88 0 160 2 160 4 0 2 -31 123 -69 268 -38 145 -74 290 -81
321 -6 31 -13 57 -14 57 -2 0 -9 -28 -15 -62z"/>
<path d="M14438 15043 c6 -2 18 -2 25 0 6 3 1 5 -13 5 -14 0 -19 -2 -12 -5z"/>
<path d="M13612 3653 c-53 -26 -76 -82 -76 -183 0 -139 46 -200 151 -200 101
0 152 67 153 200 0 130 -54 200 -155 200 -22 0 -55 -8 -73 -17z"/>
<path d="M15540 3663 c-37 -14 -70 -59 -84 -115 l-6 -28 135 0 c129 0 135 1
135 20 0 34 -26 85 -55 108 -27 21 -88 29 -125 15z"/>
<path d="M16085 3453 c-76 -17 -112 -59 -100 -119 8 -45 38 -64 100 -64 89 0
139 46 151 138 l7 52 -69 -1 c-38 -1 -78 -3 -89 -6z"/>
</g>
</svg>
